PathFileType	4	(X/Y/Z)	34_2_76_p0_0-541_filt_butterworth.trc
DataRate	CameraRate	NumFrames	NumMarkers	Units	OrigDataRate	OrigDataStartFrame	OrigNumFrames
60.0	60.0	5	27	m	60.0	0	541
Frame#	Time	RHip			RKnee			RAnkle			RBigToe			RSmallToe			RHeel			LHip			LKnee			LAnkle			LBigToe			LSmallToe			LHeel			Neck			Head			Nose			RShoulder			RElbow			RWrist			RThumb			RIndex			RPinky			LShoulder			LElbow			LWrist			LThumb			LIndex			LPinky			
		X1	Y1	Z1	X2	Y2	Z2	X3	Y3	Z3	X4	Y4	Z4	X5	Y5	Z5	X6	Y6	Z6	X7	Y7	Z7	X8	Y8	Z8	X9	Y9	Z9	X10	Y10	Z10	X11	Y11	Z11	X12	Y12	Z12	X13	Y13	Z13	X14	Y14	Z14	X15	Y15	Z15	X16	Y16	Z16	X17	Y17	Z17	X18	Y18	Z18	X19	Y19	Z19	X20	Y20	Z20	X21	Y21	Z21	X22	Y22	Z22	X23	Y23	Z23	X24	Y24	Z24	X25	Y25	Z25	X26	Y26	Z26	X27	Y27	Z27	
0	0.0	0.36069437712728164	0.5187893478416407	1.0096550464014828	0.36180632027258425	0.5702767289059881	1.381730864139898	0.36129141284052485	0.6578751834703696	1.7185363711980055	0.342281592483435	0.5695131492762839	1.7822847785444476	0.4146262949425904	0.5851346728771121	1.7846479822502264	0.3469494741864352	0.7774943376583416	1.7994948034091685	0.17336975642357438	0.5589377311948055	1.0154836520570407	0.17711812992413517	0.623629708270864	1.3998826594716562	0.18273197280874603	0.7473582429814436	1.7535355523046756	0.19347549548945986	0.5438522126611184	1.758835649185191	0.1392995534577337	0.5986699212880333	1.7675559243144496	0.19478675767846182	0.783554959588254	1.7978074137020628	0.26773078290525076	0.43332590923457565	0.5342980375888615	0.272783340088395	0.35437390066053454	0.2948513030518648	0.25402092391089687	0.2661209014076717	0.4299035955114989	0.41497774471569643	0.41444672325397663	0.6176517483647787	0.4179517774533108	0.4333645958800464	0.8442841827015412	0.3257670655801054	0.3169096050779741	1.0208727414869139	0.23866700123600273	0.27395612578642925	1.0733349235023169	0.24107391468180323	0.27879361631489574	1.0937748979307773	0.27181829140310326	0.34740837024020105	1.1279212292920664	0.12578536216583414	0.4327966505700748	0.6118413296411219	0.11708271225117033	0.4400845068661659	0.8243564686152581	0.23551862990377298	0.3448480685830173	0.9761406609386594	0.2488030199406158	0.2971226910713032	1.0580086535700823	0.2565379032135551	0.28988309841314813	1.0891838230254813	0.25916805111611363	0.32186216703169246	1.0695276053067013
1	0.0166666666666666	0.3606943661411752	0.5181625740139622	1.0095932629908688	0.359757171177213	0.5710008175382977	1.3843339978133034	0.36132639647510534	0.6579078002822619	1.7184902690017676	0.34358679304349804	0.5700882263131715	1.7824194282037387	0.4153810034655008	0.5789943223932699	1.7821198732275525	0.34580400080789236	0.7827676303644385	1.7993640078947502	0.17236307931985786	0.5606681044395825	1.0209074220371324	0.18177784792240267	0.6329141045195208	1.4021431207267054	0.1834984993497999	0.7458064812816305	1.752043683121185	0.19353882841680975	0.5441129705183503	1.7587693565222733	0.137004425904844	0.609053492200711	1.77278600766203	0.19528839451547167	0.7818076368191668	1.7947251891961928	0.26931905896976077	0.43957169554052544	0.5340660311784866	0.2726664152319858	0.35476070006955057	0.2964970966882989	0.25389608637874145	0.2654557492503596	0.42863230163039123	0.41281287736010464	0.40751232759931877	0.6176831972687128	0.4179321641491462	0.43314439184616166	0.8401177073356061	0.3239420669713611	0.3099498074753762	1.0198445390843223	0.23840555009925804	0.27596699411929215	1.0765701077046117	0.2427287348743884	0.2880981378697653	1.0976693979729302	0.27543442548312846	0.34477113427339806	1.1285701069742144	0.1269910394674931	0.437504441922975	0.6075107765279182	0.1179018833481747	0.43460064357320716	0.8222728533236844	0.2368654779474976	0.33179473090834677	0.9752806056777836	0.2513871618909264	0.28955500281693486	1.0630429766284892	0.25821867904613827	0.2869627087092805	1.0918300951910593	0.25661790222873126	0.3138633829300601	1.0745590530836029
2	0.0333333333333333	0.36072724571565884	0.5177591090923457	1.0095009672067623	0.3578790638418167	0.571450104494511	1.385887389936862	0.3613432327743461	0.6579126327254915	1.71845850593779	0.3445620460800608	0.5662791221638801	1.7809120890661503	0.4155591824155555	0.5731125152862939	1.7797530453711379	0.34564173358969624	0.7838264110983312	1.7978520630612116	0.172298751038017	0.5618811024657012	1.0241896728815936	0.18463082667069564	0.6386784469790167	1.4035040267900933	0.18395817299285191	0.7449681919571924	1.751344957247488	0.1935795912772828	0.5442538552898035	1.7587306263621159	0.13577716809442933	0.6150726745010655	1.7754230887880167	0.19540258622078863	0.7810535607764408	1.7938670371343397	0.26973768795501646	0.441153928101559	0.5340008033270901	0.27258666123003455	0.35498743408842637	0.2974940031883112	0.253773267980465	0.26481552927504015	0.4274175910295822	0.41151125007149164	0.40333455923980593	0.617697846153337	0.41784376729075334	0.433192170054397	0.8383213951879219	0.32279706316904805	0.30579120541595517	1.0192374142608118	0.23823880557143123	0.28044304879110493	1.0796500756248715	0.24300980111518342	0.29608443995237016	1.1004373558590257	0.27791175576348903	0.3449100374923973	1.1299375375664773	0.12772791642106085	0.44038213210433474	0.6049887123061215	0.11819512501738352	0.4321784713585948	0.8216950182944389	0.23764730588102734	0.3237005863645317	0.9754531778828817	0.2519823378068365	0.28821735794208647	1.0659276886748086	0.2583830623641964	0.28773541427800753	1.0939560845294003	0.25485010488854504	0.3082563549120956	1.0774386176811817
3	0.05	0.3607962027824893	0.517605517670374	1.0095013971945963	0.35657684100166465	0.5716796998589457	1.3864501577281279	0.36133417084960967	0.6579277869279205	1.7184663288402113	0.3450029873099479	0.5608161794855044	1.778810278466605	0.4149500456903605	0.5688204679744034	1.7780926456820845	0.34619638699683425	0.7817732255426193	1.7958302350386175	0.17291687496161326	0.5624144496615857	1.0252815547692709	0.18552390699132043	0.6406737651270342	1.4038905296830881	0.18409833735139994	0.7449422234943777	1.751224697105318	0.19359002778653583	0.5442562504135484	1.7587394557501366	0.13560042597306976	0.6165311661028877	1.7756359020788925	0.19514101436584666	0.7814128472385403	1.7951226728361847	0.26905224005322487	0.4383414762124177	0.5340933335388036	0.2725546263052312	0.3550373147932514	0.29780383001556454	0.25368052746595693	0.2643618032039184	0.42654544450722864	0.41114243434237724	0.402130510310709	0.6176970345728909	0.4177056110161302	0.43349876311417124	0.8388736641597435	0.3223721131171264	0.3046487222957819	1.0190896503046516	0.2381973142772164	0.287325223483086	1.082028826202316	0.24201508641236216	0.3019760841970774	1.1018504894245804	0.27895669393302214	0.3469392624101982	1.1312292297588207	0.12796419627754335	0.4413634014112412	0.6046496377113044	0.11778404914161295	0.4336800335282002	0.8226361832626529	0.2379639078885255	0.32219850720726856	0.97627807434558	0.2508523559634333	0.2924035916753452	1.0665635113354366	0.25672570153657975	0.2913271168924653	1.0956554620344368	0.2542015116667679	0.30557683285521436	1.0780798552369821
4	0.0666666666666666	0.3608865141586477	0.5175403318923641	1.0098893556904658	0.3560360509590314	0.5718440125927543	1.3868888789713418	0.3613137719543217	0.6579750009113294	1.7185105921339883	0.34462904880993966	0.5594093580704123	1.7782844810622598	0.4140611137537468	0.5667636634880975	1.777353133907385	0.3467611123861402	0.7797170651129787	1.794626804487154	0.17349805936400778	0.5624377552384004	1.0256493031740397	0.18535039503376788	0.6405537732562575	1.4037551213489345	0.1841156918249889	0.7452774860888876	1.7513117322915441	0.19358088511359253	0.5441938978314204	1.7587877262825664	0.13580651415656048	0.6159955018570863	1.7750931504214185	0.19483265891962892	0.7823048700072253	1.7967863974329854	0.26818335561334933	0.4348181280671463	0.5342078745220395	0.27256030968275513	0.35499338915276324	0.29779311700722566	0.2536383880658556	0.2641821240956784	0.42616497573385737	0.4112286236362906	0.4023742723803406	0.6176938530833515	0.41759328984654165	0.4338160105013063	0.8401008562057051	0.3223936238704289	0.3049334637978579	1.0191458785478191	0.2382875716014557	0.2936102293833044	1.0829765107654845	0.24095656227196893	0.30504930254730356	1.1022298315157655	0.2791507611875625	0.34852296801967153	1.1311844933835014	0.1279539464110012	0.4415134735957399	0.6057280034498873	0.11712824774723231	0.43687738058038095	0.8239077960065438	0.23791018034675804	0.3254405895975775	0.9767899388988623	0.24968076131758452	0.2971688023123829	1.0662693368605767	0.2545716727258947	0.2940053464556165	1.097411727428554	0.254413742197824	0.3043000391295865	1.0778529676433735
